<?xml version="1.0" encoding="utf-8"?><svg version="1.1" id="Calque_1" xmlns="http://www.w3.org/2000/svg" viewBox="0 0 256 256"><defs><style type="text/css">.st0{opacity:0.6;}</style></defs><g><path fill="currentColor" class="st0" d="M168.5,17C128.5,17,96,49.5,96,89.5s32.5,72.5,72.5,72.5S241,129.5,241,89.5S208.5,17,168.5,17z M168.2,139.8 c-27.7,0-50.2-22.5-50.2-50.2c0-27.7,22.5-50.2,50.2-50.2s50.2,22.5,50.2,50.2C218.4,117.4,195.9,139.8,168.2,139.8z"/><path fill="currentColor" d="M168.5,165C126.9,165,93,131.1,93,89.5S126.9,14,168.5,14S244,47.9,244,89.5S210.1,165,168.5,165z M168.5,20 C130.2,20,99,51.2,99,89.5s31.2,69.5,69.5,69.5S238,127.8,238,89.5S206.8,20,168.5,20z M168.2,142.8c-29.3,0-53.2-23.9-53.2-53.2 s23.9-53.2,53.2-53.2s53.2,23.9,53.2,53.2S197.5,142.8,168.2,142.8z M168.2,42.5c-26,0-47.2,21.2-47.2,47.2s21.2,47.2,47.2,47.2 s47.2-21.2,47.2-47.2S194.2,42.5,168.2,42.5z"/><path fill="currentColor" class="st0" d="M108.7,130.5l-0.9-0.9c0,0-83.3,61.9-86.3,86.3c-1.9,15.4,7.3,22.1,19.8,19.8c20.6-3.8,86.3-86.3,86.3-86.3 l-0.2-0.2C120.1,144.2,113.8,137.9,108.7,130.5z"/><path fill="currentColor" d="M36.8,239.2c-5.2,0-9.7-1.6-12.9-4.7c-3.1-2.9-6.6-8.6-5.3-19c3-24.9,78.8-81.9,87.5-88.3l2.1-1.5l3,3.1 c4.9,7.1,10.9,13.1,18,18l0.2,0.2l2.3,2.3l-1.7,2.1c-6.8,8.5-67,83.5-88.1,87.3C40.2,239,38.5,239.2,36.8,239.2z M107.3,133.8 C83,152.1,26.8,198,24.6,216.3c-0.8,6.2,0.4,11,3.5,13.9c2.9,2.7,7.4,3.6,12.9,2.6c15.4-2.8,63-58.5,82.5-82.8 C117.2,145.5,111.9,140,107.3,133.8z"/></g></svg>