<?xml version="1.0" encoding="UTF-8"?><svg id="a" xmlns="http://www.w3.org/2000/svg" viewBox="0 0 872.0416 719.5458"><defs><style>.b{opacity:.21;}.b,.c,.d{fill:#000;}.c{opacity:.5;}</style></defs><path class="d" d="M361.4633,304.0688H36.2261c-16.3637,0-29.6767-13.3134-29.6767-29.6771V69.1864c0-16.3637,13.313-29.6767,29.6767-29.6767h60.7453v-9.8329C96.9714,13.3131,110.2844,0,126.6481,0h153.0053C296.0171,0,309.3297,13.3131,309.3297,29.6767v9.8329h52.1336c16.3637,0,29.6771,13.313,29.6771,29.6767v205.2053c0,16.3637-13.3134,29.6771-29.6771,29.6771ZM36.2261,61.7974c-4.0744,0-7.389,3.3146-7.389,7.389v205.2053c0,4.0748,3.3146,7.3894,7.389,7.3894H361.4633c4.0748,0,7.3894-3.3146,7.3894-7.3894V69.1864c0-4.0744-3.3146-7.389-7.3894-7.389h-74.4213V29.6767c0-4.0744-3.3146-7.389-7.3886-7.389H126.6481c-4.0744,0-7.389,3.3146-7.389,7.389V61.7974H36.2261Z"/><path class="c" d="M199.1525,270.0207c-55.206,0-100.1193-44.9137-100.1193-100.1193s44.9133-100.1189,100.1193-100.1189,100.1185,44.9133,100.1185,100.1189-44.9129,100.1193-100.1185,100.1193Zm0-190.6862c-49.9391,0-90.5674,40.6278-90.5674,90.567s40.6282,90.5674,90.5674,90.5674,90.5666-40.6282,90.5666-90.5674-40.6282-90.567-90.5666-90.567Z"/><path class="c" d="M199.4215,254.3994c-46.7408,0-84.7669-38.0265-84.7669-84.7669s38.0261-84.7673,84.7669-84.7673,84.7677,38.0261,84.7677,84.7673-38.0265,84.7669-84.7677,84.7669Zm0-159.9822c-41.4736,0-75.215,33.7414-75.215,75.2154s33.7414,75.215,75.215,75.215,75.2158-33.741,75.2158-75.215-33.7418-75.2154-75.2158-75.2154Z"/><path class="d" d="M361.4634,50.6534h-63.2773V29.6769c0-10.2355-8.2975-18.533-18.5331-18.533H126.6483c-10.2356,0-18.5331,8.2975-18.5331,18.533v20.9765H36.2263c-10.2356,0-18.5331,8.2976-18.5331,18.5331v205.2053c0,10.2356,8.2975,18.5331,18.5331,18.5331H361.4634c10.2356,0,18.5331-8.2975,18.5331-18.5331V69.1865c0-10.2355-8.2975-18.5331-18.5331-18.5331Zm-162.311,214.5912c-52.6565,0-95.343-42.6865-95.343-95.343s42.6865-95.343,95.343-95.343,95.343,42.6865,95.343,95.343-42.6865,95.343-95.343,95.343ZM339.7641,102.7579c-7.6755,0-13.8977-6.2223-13.8977-13.8978s6.2222-13.8978,13.8977-13.8978,13.8978,6.2222,13.8978,13.8978-6.2222,13.8978-13.8978,13.8978Z"/><path class="b" d="M206.215,238.8255c-40.739,5.0207-76.7927-29.7874-74.75-70.4211-.01-.2377,.1467-.4981,.419-.4719,.1701,.0096,.3088,.1274,.3538,.2822l1.8878,6.5335c1.7977,5.3135,3.7705,10.7138,6.281,15.746,9.1544,19.4273,26.0964,34.9016,46.3242,42.1471,3.5908,1.422,7.6002,2.499,11.3151,3.5802,1.3148,.3625,6.9192,1.4895,8.3,1.8189,.212,.0458,.3468,.2549,.3009,.467-.049,.2059-.2313,.3186-.4318,.318h0Z"/><path class="d" d="M842.3645,304.0688h-325.2372c-16.3637,0-29.6767-13.3134-29.6767-29.6771V69.1864c0-16.3637,13.313-29.6767,29.6767-29.6767h60.7453v-9.8329c0-16.3637,13.313-29.6767,29.6767-29.6767h153.0053c16.3637,0,29.6763,13.313,29.6763,29.6767v9.8329h52.1336c16.3637,0,29.6771,13.313,29.6771,29.6767v205.2053c0,16.3637-13.3134,29.6771-29.6771,29.6771ZM517.1273,61.7974c-4.0744,0-7.389,3.3146-7.389,7.389v205.2053c0,4.0748,3.3146,7.3894,7.389,7.3894h325.2372c4.0748,0,7.3894-3.3146,7.3894-7.3894V69.1864c0-4.0744-3.3146-7.389-7.3894-7.389h-74.4213V29.6767c0-4.0744-3.3146-7.389-7.3886-7.389h-153.0053c-4.0744,0-7.389,3.3146-7.389,7.389V61.7974h-83.033Z"/><path class="c" d="M680.0537,270.0207c-55.206,0-100.1193-44.9137-100.1193-100.1193s44.9133-100.1189,100.1193-100.1189,100.1185,44.9133,100.1185,100.1189-44.9129,100.1193-100.1185,100.1193Zm0-190.6862c-49.9391,0-90.5674,40.6278-90.5674,90.567s40.6282,90.5674,90.5674,90.5674,90.5666-40.6282,90.5666-90.5674-40.6282-90.567-90.5666-90.567Z"/><path class="c" d="M680.3227,254.3994c-46.7408,0-84.7669-38.0265-84.7669-84.7669s38.0261-84.7673,84.7669-84.7673,84.7677,38.0261,84.7677,84.7673-38.0265,84.7669-84.7677,84.7669Zm0-159.9822c-41.4736,0-75.215,33.7414-75.215,75.2154s33.7414,75.215,75.215,75.215,75.2158-33.741,75.2158-75.215-33.7418-75.2154-75.2158-75.2154Z"/><path class="d" d="M842.3646,50.6534h-63.2773V29.6769c0-10.2355-8.2975-18.533-18.5331-18.533h-153.0047c-10.2356,0-18.5331,8.2975-18.5331,18.533v20.9765h-71.889c-10.2356,0-18.5331,8.2976-18.5331,18.5331v205.2053c0,10.2356,8.2975,18.5331,18.5331,18.5331h325.2372c10.2356,0,18.5331-8.2975,18.5331-18.5331V69.1865c0-10.2355-8.2975-18.5331-18.5331-18.5331Zm-162.311,214.5912c-52.6565,0-95.343-42.6865-95.343-95.343s42.6865-95.343,95.343-95.343,95.343,42.6865,95.343,95.343-42.6865,95.343-95.343,95.343Zm140.6117-162.4867c-7.6755,0-13.8977-6.2223-13.8977-13.8978s6.2222-13.8978,13.8977-13.8978,13.8978,6.2222,13.8978,13.8978-6.2222,13.8978-13.8978,13.8978Z"/><path class="b" d="M687.1162,238.8255c-40.739,5.0207-76.7927-29.7874-74.75-70.4211-.01-.2377,.1467-.4981,.419-.4719,.1701,.0096,.3088,.1274,.3538,.2822l1.8878,6.5335c1.7977,5.3135,3.7705,10.7138,6.281,15.746,9.1544,19.4273,26.0964,34.9016,46.3242,42.1471,3.5908,1.422,7.6002,2.499,11.3151,3.5802,1.3148,.3625,6.9192,1.4895,8.3,1.8189,.212,.0458,.3468,.2549,.3009,.467-.049,.2059-.2313,.3186-.4318,.318h0Z"/><path class="d" d="M354.9139,719.5458H29.6767c-16.3637,0-29.6767-13.3134-29.6767-29.6771v-205.2053c0-16.3637,13.313-29.6767,29.6767-29.6767h60.7453v-9.8329c0-16.3637,13.313-29.6767,29.6767-29.6767h153.0053c16.3637,0,29.6763,13.313,29.6763,29.6767v9.8329h52.1336c16.3637,0,29.6771,13.313,29.6771,29.6767v205.2053c0,16.3637-13.3134,29.6771-29.6771,29.6771ZM29.6767,477.2744c-4.0744,0-7.389,3.3146-7.389,7.389v205.2053c0,4.0748,3.3146,7.3894,7.389,7.3894H354.9139c4.0748,0,7.3894-3.3146,7.3894-7.3894v-205.2053c0-4.0744-3.3146-7.389-7.3894-7.389h-74.4213v-32.1207c0-4.0744-3.3146-7.389-7.3886-7.389H120.0987c-4.0744,0-7.389,3.3146-7.389,7.389v32.1207H29.6767Z"/><path class="c" d="M192.6031,685.4977c-55.206,0-100.1193-44.9137-100.1193-100.1193s44.9133-100.1189,100.1193-100.1189,100.1185,44.9133,100.1185,100.1189-44.9129,100.1193-100.1185,100.1193Zm0-190.6862c-49.9391,0-90.5674,40.6278-90.5674,90.567s40.6282,90.5674,90.5674,90.5674,90.5666-40.6282,90.5666-90.5674-40.6282-90.567-90.5666-90.567Z"/><path class="c" d="M192.8721,669.8764c-46.7408,0-84.7669-38.0265-84.7669-84.7669s38.0261-84.7673,84.7669-84.7673,84.7677,38.0261,84.7677,84.7673-38.0265,84.7669-84.7677,84.7669Zm0-159.9822c-41.4736,0-75.215,33.7414-75.215,75.2154s33.7414,75.215,75.215,75.215,75.2158-33.741,75.2158-75.215-33.7418-75.2154-75.2158-75.2154Z"/><path class="d" d="M354.914,466.1304h-63.2773v-20.9765c0-10.2355-8.2975-18.533-18.5331-18.533H120.0989c-10.2356,0-18.5331,8.2975-18.5331,18.533v20.9765H29.6769c-10.2356,0-18.5331,8.2976-18.5331,18.5331v205.2053c0,10.2356,8.2975,18.5331,18.5331,18.5331H354.914c10.2356,0,18.5331-8.2975,18.5331-18.5331v-205.2053c0-10.2355-8.2975-18.5331-18.5331-18.5331Zm-162.311,214.5912c-52.6565,0-95.343-42.6865-95.343-95.343s42.6865-95.343,95.343-95.343,95.343,42.6865,95.343,95.343-42.6865,95.343-95.343,95.343Zm140.6117-162.4867c-7.6755,0-13.8977-6.2223-13.8977-13.8978s6.2222-13.8978,13.8977-13.8978,13.8978,6.2222,13.8978,13.8978-6.2222,13.8978-13.8978,13.8978Z"/><path class="b" d="M199.6656,654.3025c-40.739,5.0207-76.7927-29.7874-74.75-70.4211-.01-.2377,.1467-.4981,.419-.4719,.1701,.0096,.3088,.1274,.3538,.2822l1.8878,6.5335c1.7977,5.3135,3.7705,10.7138,6.281,15.746,9.1544,19.4273,26.0964,34.9016,46.3242,42.1471,3.5908,1.422,7.6002,2.499,11.3151,3.5802,1.3148,.3625,6.9192,1.4895,8.3,1.8189,.212,.0458,.3468,.2549,.3009,.467-.049,.2059-.2313,.3186-.4318,.318h0Z"/><path class="d" d="M835.8151,719.5458H510.5779c-16.3637,0-29.6767-13.3134-29.6767-29.6771v-205.2053c0-16.3637,13.313-29.6767,29.6767-29.6767h60.7453v-9.8329c0-16.3637,13.313-29.6767,29.6767-29.6767h153.0053c16.3637,0,29.6763,13.313,29.6763,29.6767v9.8329h52.1336c16.3637,0,29.6771,13.313,29.6771,29.6767v205.2053c0,16.3637-13.3134,29.6771-29.6771,29.6771Zm-325.2372-242.2714c-4.0744,0-7.389,3.3146-7.389,7.389v205.2053c0,4.0748,3.3146,7.3894,7.389,7.3894h325.2372c4.0748,0,7.3894-3.3146,7.3894-7.3894v-205.2053c0-4.0744-3.3146-7.389-7.3894-7.389h-74.4213v-32.1207c0-4.0744-3.3146-7.389-7.3886-7.389h-153.0053c-4.0744,0-7.389,3.3146-7.389,7.389v32.1207h-83.033Z"/><path class="c" d="M673.5044,685.4977c-55.206,0-100.1193-44.9137-100.1193-100.1193s44.9133-100.1189,100.1193-100.1189,100.1185,44.9133,100.1185,100.1189-44.9129,100.1193-100.1185,100.1193Zm0-190.6862c-49.9391,0-90.5674,40.6278-90.5674,90.567s40.6282,90.5674,90.5674,90.5674,90.5666-40.6282,90.5666-90.5674-40.6282-90.567-90.5666-90.567Z"/><path class="c" d="M673.7733,669.8764c-46.7408,0-84.7669-38.0265-84.7669-84.7669s38.0261-84.7673,84.7669-84.7673,84.7677,38.0261,84.7677,84.7673-38.0265,84.7669-84.7677,84.7669Zm0-159.9822c-41.4736,0-75.215,33.7414-75.215,75.2154s33.7414,75.215,75.215,75.215,75.2158-33.741,75.2158-75.215-33.7418-75.2154-75.2158-75.2154Z"/><path class="d" d="M835.8153,466.1304h-63.2773v-20.9765c0-10.2355-8.2975-18.533-18.5331-18.533h-153.0047c-10.2356,0-18.5331,8.2975-18.5331,18.533v20.9765h-71.889c-10.2356,0-18.5331,8.2976-18.5331,18.5331v205.2053c0,10.2356,8.2975,18.5331,18.5331,18.5331h325.2372c10.2356,0,18.5331-8.2975,18.5331-18.5331v-205.2053c0-10.2355-8.2975-18.5331-18.5331-18.5331Zm-162.311,214.5912c-52.6565,0-95.343-42.6865-95.343-95.343s42.6865-95.343,95.343-95.343,95.343,42.6865,95.343,95.343-42.6865,95.343-95.343,95.343Zm140.6117-162.4867c-7.6755,0-13.8977-6.2223-13.8977-13.8978s6.2222-13.8978,13.8977-13.8978,13.8978,6.2222,13.8978,13.8978-6.2222,13.8978-13.8978,13.8978Z"/><path class="b" d="M680.5668,654.3025c-40.739,5.0207-76.7927-29.7874-74.75-70.4211-.01-.2377,.1467-.4981,.419-.4719,.1701,.0096,.3088,.1274,.3538,.2822l1.8878,6.5335c1.7977,5.3135,3.7705,10.7138,6.281,15.746,9.1544,19.4273,26.0964,34.9016,46.3242,42.1471,3.5908,1.422,7.6002,2.499,11.3151,3.5802,1.3148,.3625,6.9192,1.4895,8.3,1.8189,.212,.0458,.3468,.2549,.3009,.467-.049,.2059-.2313,.3186-.4318,.318h0Z"/></svg>