<?xml version="1.0" encoding="UTF-8"?><svg id="a" xmlns="http://www.w3.org/2000/svg" viewBox="0 0 800 736.1232"><defs><style>.b{opacity:.21;}.b,.c,.d{fill:#000;}.c{opacity:.5;}</style></defs><path class="d" d="M738.2677,684.4694H61.7315c-34.0386,0-61.7315-27.6937-61.7315-61.7323V195.883c0-34.0386,27.6929-61.7315,61.7315-61.7315h126.3582v-20.4537c0-34.0386,27.6929-61.7315,61.7315-61.7315h318.2711c34.0386,0,61.7307,27.6929,61.7307,61.7315v20.4537h108.4447c34.0386,0,61.7323,27.6929,61.7323,61.7315v426.8541c0,34.0386-27.6937,61.7323-61.7323,61.7323ZM61.7315,180.513c-8.4753,0-15.37,6.8947-15.37,15.37v426.8541c0,8.4761,6.8947,15.3708,15.37,15.3708H738.2677c8.4761,0,15.3708-6.8947,15.3708-15.3708V195.883c0-8.4753-6.8947-15.37-15.3708-15.37h-154.8062V113.6978c0-8.4753-6.8947-15.37-15.3692-15.37H249.8212c-8.4753,0-15.37,6.8947-15.37,15.37v66.8152H61.7315Z"/><path class="c" d="M400.6399,613.6449c-114.8357,0-208.2613-93.4263-208.2613-208.2613s93.4255-208.2604,208.2613-208.2604,208.2596,93.4255,208.2596,208.2604-93.4247,208.2613-208.2596,208.2613Zm0-396.6525c-103.88,0-188.392,84.5112-188.392,188.3912s84.512,188.392,188.392,188.392,188.3904-84.512,188.3904-188.392-84.512-188.3912-188.3904-188.3912Z"/><path class="c" d="M401.1994,581.1505c-97.227,0-176.3263-79.1001-176.3263-176.3263s79.0993-176.3271,176.3263-176.3271,176.3279,79.0993,176.3279,176.3271-79.1001,176.3263-176.3279,176.3263Zm0-332.7842c-86.2705,0-156.4571,70.1866-156.4571,156.4579s70.1866,156.4571,156.4571,156.4571,156.4587-70.1858,156.4587-156.4571-70.1874-156.4579-156.4587-156.4579Z"/><path class="d" d="M738.268,157.3321h-131.6252v-43.6339c0-21.2912-17.2599-38.5512-38.5513-38.5512H249.8216c-21.2913,0-38.5513,17.2599-38.5513,38.5512v43.6339H61.7318c-21.2913,0-38.5513,17.26-38.5513,38.5513v426.8541c0,21.2913,17.2599,38.5513,38.5513,38.5513H738.268c21.2913,0,38.5513-17.2599,38.5513-38.5513V195.8833c0-21.2912-17.2599-38.5513-38.5513-38.5513Zm-337.6284,446.3781c-109.5324,0-198.3259-88.7936-198.3259-198.3259s88.7936-198.326,198.3259-198.326,198.326,88.7936,198.326,198.326-88.7936,198.3259-198.326,198.3259Zm292.4908-337.9938c-15.9661,0-28.9091-12.9432-28.9091-28.9092s12.9431-28.9092,28.9091-28.9092,28.9092,12.9431,28.9092,28.9092-12.9431,28.9092-28.9092,28.9092Z"/><path class="b" d="M415.3308,548.7548c-84.7425,10.4436-159.739-61.9617-155.4898-146.4851-.0209-.4945,.3052-1.0361,.8716-.9815,.3539,.02,.6423,.2649,.736,.587,0,0,3.9269,13.5905,3.9269,13.5905,3.7396,11.0528,7.8431,22.2862,13.0652,32.7537,19.0424,40.4114,54.284,72.6,96.3604,87.6714,7.4694,2.958,15.8095,5.1982,23.5368,7.4474,2.7349,.7541,14.3928,3.0983,17.2651,3.7836,.4411,.0952,.7214,.5303,.6259,.9715-.1019,.4282-.4812,.6627-.8982,.6615h0Z"/></svg>