<?xml version="1.0" encoding="UTF-8"?><svg id="a" xmlns="http://www.w3.org/2000/svg" viewBox="0 0 736.1232 736.1232"><defs><style>.d,.e{opacity:.9;}.f{opacity:.5;}.f,.e,.g{fill:#a1393e;}</style></defs><circle id="b" class="e" cx="545.3303" cy="348.8524" r="17.4597"/><g id="c" class="d"><path class="g" d="M369.0186,355.8336c-52.103,0-94.4922,42.3892-94.4922,94.4927s42.3892,94.4922,94.4922,94.4922,94.4932-42.3887,94.4932-94.4922-42.3896-94.4927-94.4932-94.4927Zm9.0771,181.02c-.0615,.2586-.2906,.4002-.5425,.3995-51.1802,6.3074-96.4743-37.4218-93.908-88.4696-.0126-.2986,.1843-.6257,.5264-.5928,.2137,.0121,.3879,.16,.4445,.3546l2.3716,8.2079c2.2585,6.6753,4.7368,13.4597,7.8907,19.7816,11.5006,24.4064,32.7848,43.8468,58.1968,52.9492,4.5112,1.7865,9.5482,3.1395,14.2151,4.4979,1.6517,.4554,8.6925,1.8712,10.4272,2.2851,.2664,.0575,.4357,.3203,.378,.5867Z"/><path class="g" d="M368.6805,330.8855c-66.152,0-119.7789,53.6268-119.7789,119.7789s53.6268,119.7789,119.7789,119.7789,119.7789-53.6268,119.7789-119.7789-53.6268-119.7789-119.7789-119.7789Zm.3381,225.9329c-58.7202,0-106.4922-47.7725-106.4922-106.4922s47.772-106.4927,106.4922-106.4927,106.4932,47.772,106.4932,106.4927-47.7725,106.4922-106.4932,106.4922Z"/></g><g><path class="g" d="M402.1407,75.461c-1.0986-1.1855-2.5869-1.7617-4.5488-1.7617-1.9482,0-3.4023,.5674-4.4463,1.7354-.7744,.8652-1.3271,2.0317-1.6533,3.4834h12.2305c-.2627-1.4458-.792-2.604-1.582-3.457Z"/><path class="g" d="M705.9938,0H30.1294C13.4894,0,0,13.4894,0,30.1294V705.9938c0,16.64,13.4894,30.1294,30.1294,30.1294H705.9938c16.64,0,30.1294-13.4894,30.1294-30.1294V30.1294c0-16.64-13.4894-30.1294-30.1294-30.1294ZM427.4737,64.7725c3.3389-2.3555,8.0303-3.5498,13.9463-3.5498,5.5244,0,10.9707,1.2183,16.1885,3.6211l1.7529,.8071-5.1172,12.2363-1.8545-.7949c-2.1094-.9038-4.1094-1.6562-5.9463-2.2358-1.6982-.5347-3.4541-.8057-5.2188-.8057-1.5762,0-3.2734,.2666-3.2734,.8516,0,.1509,0,.5513,.835,1.127,.6924,.4775,2.4766,1.4316,7.0508,3.2671,3.6123,1.4624,6.2139,2.811,7.959,4.126,1.8369,1.3867,3.2207,3.0239,4.1123,4.8667,.8838,1.8306,1.332,4.0024,1.332,6.457,0,5.1196-1.8389,9.1006-5.4648,11.832-3.4521,2.5996-8.5557,3.918-15.168,3.918-3.2891,0-6.1494-.229-8.502-.6802-2.3711-.4551-4.625-1.1343-6.6973-2.0195l-1.2148-.5186v-14.3169l2.8516,1.3428c2.085,.9819,4.4805,1.8188,7.1201,2.4883,2.6006,.6592,4.8994,.9932,6.833,.9932,2.9756,0,4.4844-.5889,4.4844-1.75,0-.5234-.1553-.7495-.29-.8877-.2383-.2437-.8779-.7798-2.4717-1.6211-1.3428-.7085-3.1836-1.5581-5.4697-2.5239-3.5449-1.4839-6.1094-2.8442-7.835-4.1567-1.8301-1.3901-3.1904-3.0308-4.042-4.874-.835-1.8042-1.2588-4.0122-1.2588-6.5615,0-4.5493,1.8027-8.1284,5.3584-10.6377Zm-46.6113,3.0962c4.0361-4.4102,9.6387-6.646,16.6514-6.646,6.7012,0,12.0322,1.9766,15.8438,5.875,3.7998,3.8862,5.7266,9.2588,5.7266,15.9688v7.7812h-27.9453c.3447,1.8818,1.0762,3.3735,2.2129,4.5249,1.4971,1.5186,3.6123,2.2563,6.4668,2.2563,2.4648,0,4.8223-.2583,7.0068-.7681,2.1963-.5127,4.5342-1.3472,6.9482-2.48l2.8496-1.3374v13.6025l-1.1055,.5532c-2.2236,1.1118-4.6309,1.9497-7.1553,2.4907-2.4961,.5352-5.5547,.8062-9.0908,.8062-7.541,0-13.5586-2.1509-17.8848-6.3921-4.3379-4.251-6.5371-10.2778-6.5371-17.9126,0-7.7988,2.0234-13.9634,6.0127-18.3228Zm-51.5737,38.9946c1.1665-1.2588,2.6558-2.2988,4.4507-3.1099-.188-.2104-.3696-.4302-.5464-.6597-1.1816-1.5347-1.7812-3.2134-1.7812-4.9883,0-2.1553,.6514-3.9966,1.9365-5.4731,.5474-.6289,1.1938-1.2383,1.9507-1.8364-1.3413-1.0303-2.4844-2.3115-3.4165-3.8325-1.5303-2.4951-2.3066-5.4492-2.3066-8.7798,0-5.3618,1.8042-9.5962,5.3618-12.5859,3.4551-2.9028,8.3564-4.375,14.5679-4.375,1.3003,0,2.853,.1177,4.6162,.3491,1.9116,.2524,2.7412,.3887,3.1655,.4712h17.0312v9.6055l-5.9272,1.5239c.6421,1.6343,.9663,3.3896,.9663,5.2456,0,5.3022-1.9023,9.5142-5.6523,12.5181-3.6172,2.8965-8.6182,4.3647-14.8638,4.3647l-.1089-.0029-3.1382-.2241c-.3955,.4263-.4751,.7446-.4912,.9272,.2529,.1724,1.2856,.6904,4.5586,.6904h7.4219c5.2417,0,9.354,1.1904,12.2231,3.5381,2.9893,2.4468,4.5039,6.0166,4.5039,10.6104,0,5.7944-2.4512,10.3511-7.2852,13.5439-4.5703,3.019-11.1118,4.5498-19.4419,4.5498-6.4634,0-11.5327-1.1826-15.0664-3.5142-3.7974-2.5063-5.7227-6.0708-5.7227-10.5952,0-3.1387,1.0073-5.8169,2.9941-7.9609Zm-25.877-32.8906c-3.1904,0-7.0557,1.0059-11.4878,2.9897l-1.7627,.7886-5.6528-11.5298,1.7261-.9033c5.2915-2.769,11.2285-4.1733,17.646-4.1733,6.3047,0,11.2642,1.4395,14.7417,4.2788,3.5981,2.9395,5.4224,7.377,5.4224,13.1899v31.1016h-11.6895l-1.71-4.4062c-1.582,1.5835-3.2207,2.7695-4.8936,3.5396-2.3774,1.0938-5.4512,1.6479-9.1367,1.6479-4.7222,0-8.5283-1.4053-11.313-4.1763-2.7886-2.7725-4.2026-6.6929-4.2026-11.6519,0-5.3164,1.9312-9.3228,5.7397-11.9087,3.5938-2.439,8.7358-3.7461,15.7197-3.9961l5.6499-.1748c-.0068-3.3213-1.3535-4.6157-4.7969-4.6157Zm-97.9766-11.9297h12.6089l1.1079,3.8652c1.0796-1.0933,2.3555-2.0186,3.8174-2.7666,2.4873-1.2734,5.3564-1.9189,8.5283-1.9189,6.3262,0,10.9717,1.8857,13.8447,5.6118,1.2568-1.5317,2.8594-2.7808,4.7847-3.7271,2.5464-1.2505,5.4385-1.8848,8.5972-1.8848,5.4746,0,9.729,1.4785,12.6445,4.3945,2.916,2.9155,4.3945,7.4985,4.3945,13.6211v30.4766h-15.9531v-27.5078c0-2.7324-.4185-4.7437-1.2441-5.9775-.4238-.6333-1.2295-1.4756-3.3184-1.4756-2.2705,0-3.8276,.7197-4.8999,2.2651-1.2017,1.7329-1.811,4.6875-1.811,8.7817v23.9141h-15.9141v-27.5078c0-2.7324-.4185-4.7437-1.2441-5.9775-.4238-.6333-1.2295-1.4756-3.3184-1.4756-2.3564,0-3.9253,.7651-4.938,2.4087-.8091,1.312-1.7729,4.1133-1.7729,10.0054v22.5469h-15.9141V62.043Zm-25.5469-13.4375h16.1094v61.1094h-16.1094V48.6055Zm-113.4778,18.9645c.418,.672,1.1187,1.3478,2.0824,2.0093,1.04,.7148,3.6002,2.0474,7.6095,3.9614,5.6011,2.6783,9.3555,5.3177,11.4784,8.0692,2.1392,2.773,3.2237,6.2012,3.2237,10.1887,0,5.5284-2.028,9.954-6.0278,13.1542-3.928,3.1422-9.4194,4.7352-16.3212,4.7352-6.293,0-11.9493-1.2053-16.8116-3.5823l-.6043-.2955v-13.6991l1.5165,.6764c3.822,1.7046,7.0928,2.9199,9.7217,3.6123,2.5941,.6835,4.9911,1.03,7.1249,1.03,2.4413,0,4.3085-.4501,5.5495-1.3378,1.1437-.8188,1.6998-2.0298,1.6998-3.7015,0-.9088-.2439-1.6909-.7456-2.3913-.5522-.7709-1.3947-1.537-2.5039-2.2766-1.1755-.783-3.6465-2.0719-7.3435-3.8304-3.5944-1.6896-6.3464-3.3502-8.1749-4.9338-1.8588-1.6085-3.3642-3.5081-4.4736-5.6458-1.1279-2.1711-1.6999-4.7281-1.6999-7.6,0-5.4127,1.8748-9.7396,5.5724-12.8601,3.6428-3.0754,8.7029-4.6347,15.0401-4.6347,3.0775,0,6.0568,.3702,8.8553,1.1005,2.7589,.7195,5.6863,1.7467,8.7009,3.0532l.9734,.4218-4.7644,11.4823-.9932-.4076c-3.0148-1.2368-5.5339-2.11-7.4869-2.5952-1.9206-.4764-3.8317-.718-5.6797-.718-2.0363,0-3.5905,.4551-4.6191,1.3525-.9998,.8719-1.4857,1.9877-1.4857,3.4105,0,.8817,.1921,1.6183,.587,2.2521Zm45.7836,41.3287h-13.0869V49.0466h17.1291l23.4408,40.4218c-.2623-5.4611-.3952-9.4998-.3952-12.0348v-28.387h13.1658v59.8522h-17.2501l-23.5129-40.8887c.3384,5.7076,.5093,9.9563,.5093,12.6596v28.2291Zm497.68,473.0359c0,20.5576-16.7256,37.2832-37.2832,37.2832H163.9971c-20.5576,0-37.2827-16.7256-37.2827-37.2832V324.1363c0-20.5576,16.7251-37.2827,37.2827-37.2827h76.314v-12.353c0-20.5576,16.7251-37.2827,37.2827-37.2827h192.2197c20.5576,0,37.2822,16.7251,37.2822,37.2827v12.353h65.4951c20.5576,0,37.2832,16.7251,37.2832,37.2827v257.7983Z"/><path class="g" d="M341.9927,116.0352c1.2544,.7466,3.1382,1.125,5.5986,1.125,3.9468,0,7.0312-.5244,9.168-1.5581,2.5039-1.2114,2.5039-2.5142,2.5039-3.0044,0-.9629-.3477-1.3032-.9487-1.5654-.8052-.3516-2.4727-.7705-5.8403-.7705h-6.1719c-1.7852,0-3.2056,.3867-4.3413,1.1816-.937,.6543-1.354,1.4077-1.354,2.4434,0,.6548,.1646,1.4219,1.3857,2.1484Z"/><path class="g" d="M349.5054,84.0352c2.3633,0,3.0874-.9595,3.3252-1.2749,.769-1.0195,1.1592-2.5068,1.1592-4.4204,0-5.1768-2.1553-5.8906-4.4844-5.8906-2.3696,0-4.5625,.7139-4.5625,5.8906,0,1.9014,.4023,3.3789,1.1953,4.3916,.6865,.8774,1.7876,1.3037,3.3672,1.3037Z"/><path class="g" d="M297.3257,94.7462c0,1.5376,.292,3.0391,3.7812,3.0391,2.2441,0,3.957-.5972,5.2358-1.8252,1.2554-1.2061,1.8657-2.8042,1.8657-4.8857v-1.5249l-2.5415,.0864c-3.0703,.0923-5.3154,.6079-6.6812,1.5322-.7124,.4824-1.6602,1.3784-1.6602,3.5781Z"/></g><path class="f" d="M377.5533,537.2531c-51.1802,6.3074-96.4743-37.4218-93.908-88.4696-.0126-.2986,.1843-.6257,.5264-.5928,.2137,.0121,.3879,.16,.4445,.3545,0,0,2.3716,8.2079,2.3716,8.2079,2.2585,6.6753,4.7368,13.4597,7.8907,19.7816,11.5006,24.4064,32.7848,43.8468,58.1969,52.9491,4.5111,1.7865,9.5482,3.1395,14.2151,4.4978,1.6517,.4555,8.6925,1.8712,10.4272,2.2851,.2664,.0575,.4357,.3203,.378,.5867-.0616,.2586-.2906,.4003-.5425,.3995h0Z"/></svg>